
<svg xmlns="http://www.w3.org/2000/svg" viewBox="0 0 448 512" width="48" height="48" fill="#C13584">
  <path d="M224.1 141c-63.6 0-114.9 51.3-114.9 
           114.9S160.5 370.8 224.1 370.8 339 319.5 
           339 255.9 287.7 141 224.1 141zm0 
           186.6c-39.6 0-71.7-32.1-71.7-71.7s32.1-71.7 
           71.7-71.7 71.7 32.1 71.7 71.7-32.1 
           71.7-71.7 71.7zm146.4-194.3c0 
           14.9-12 26.9-26.9 
           26.9-14.9 0-26.9-12-26.9-26.9s12-26.9 
           26.9-26.9 26.9 12 26.9 26.9zm76.1 
           27.2c-1.7-35.7-9.9-67.3-36.2-93.5S388.6 
           24.6 352.9 22.9C317.4 21.1 130.6 
           21.1 95.1 22.9 59.4 24.6 27.8 32.7 
           1.6 59S-1.7 96.6.1 132.3c1.7 
           35.7 1.7 148.9 0 184.6-1.7 35.7 
           9.9 67.3 36.2 93.5s57.8 37.9 
           93.5 39.6c35.7 1.7 222.5 1.7 
           258.2 0 35.7-1.7 67.3-9.9 
           93.5-36.2s37.9-57.8 39.6-93.5c1.7-35.7 
           1.7-148.9 0-184.6zM398.8 
           388c-7.8 19.6-23 35.1-42.6 
           42.6-29.5 11.7-99.5 9-132.1 
           9s-102.7 2.6-132.1-9c-19.6-7.8-35.1-23-42.6-42.6-11.7-29.5-9-99.5-9-132.1s-2.6-102.7 
           9-132.1c7.8-19.6 23-35.1 42.6-42.6 29.5-11.7 99.5-9 132.1-9s102.7-2.6 
           132.1 9c19.6 7.8 35.1 23 42.6 
           42.6 11.7 29.5 9 99.5 9 132.1s2.7 102.7-9 132.1z"/>
</svg>
