
<svg xmlns="http://www.w3.org/2000/svg" viewBox="0 0 576 512" width="48" height="48" fill="#FF0000">
  <path d="M549.655 124.083c-6.281-23.65-24.78-42.222-48.44-48.524C457.648 64 288 64 288 
           64s-169.648 0-213.216 11.559c-23.66 6.302-42.159 24.874-48.44 
           48.524C16 168.675 16 256.011 16 256.011s0 87.336 10.344 
           131.928c6.281 23.65 24.78 42.222 48.44 48.524C118.352 
           448.021 288 448.021 288 448.021s169.648 0 213.216-11.559c23.66-6.302 
           42.159-24.874 48.44-48.524C560 343.347 560 256.011 560 
           256.011s0-87.336-10.345-131.928zM232 336.011V176.011l142 
           80-142 80z"/>
</svg>
